<svg id="tweeter" viewBox="0 0 28 23" fill="none" xmlns="http://www.w3.org/2000/svg">
<path d="M9.44019 22.4744C19.6302 22.4744 25.2002 14.0329 25.2002 6.71315C25.2002 6.47345 25.1903 6.23465 25.1803 5.99715C26.2703 5.21515 27.2102 4.23935 27.9502 3.12865C26.9502 3.56995 25.8903 3.86675 24.7703 4.00085C25.9103 3.31485 26.7902 2.23015 27.2002 0.936949C26.1302 1.57135 24.9503 2.03235 23.6803 2.28145C22.6703 1.20465 21.2303 0.53125 19.6403 0.53125C16.5803 0.53125 14.1002 3.01205 14.1002 6.07005C14.1002 6.50495 14.1502 6.92765 14.2402 7.33325C9.64023 7.10145 5.5602 4.89735 2.8302 1.54545C2.3502 2.36405 2.0802 3.31515 2.0802 4.32985C2.0802 6.25155 3.05028 7.94835 4.54028 8.94085C3.63028 8.91275 2.78027 8.66335 2.03027 8.24805C2.03027 8.27135 2.03027 8.29395 2.03027 8.31865C2.03027 11.0015 3.94022 13.2415 6.48022 13.7491C6.01022 13.8758 5.52026 13.944 5.02026 13.944C4.66026 13.944 4.31021 13.909 3.97021 13.8441C4.68021 16.0452 6.72027 17.6467 9.15027 17.6917C7.25027 19.1777 4.86026 20.0629 2.27026 20.0629C1.82026 20.0629 1.3802 20.0372 0.950195 19.9862C3.4002 21.5575 6.31019 22.4747 9.44019 22.4747" fill="#1DA1F2"/>
</svg>
